<?xml version="1.0" encoding="utf-8"?>
<!-- Generator: Adobe Illustrator 21.1.0, SVG Export Plug-In . SVG Version: 6.00 Build 0)  -->
<svg version="1.1" id="Layer_1" xmlns="http://www.w3.org/2000/svg" xmlns:xlink="http://www.w3.org/1999/xlink" x="0px" y="0px"
	 viewBox="0 0 97.9 116.9" style="enable-background:new 0 0 97.9 116.9;" xml:space="preserve">
<style type="text/css">
	.st0{fill:#FFFFFF;stroke:#000000;stroke-width:2;stroke-miterlimit:10;}
	.st1{fill:#D1D1D1;stroke:#000000;stroke-width:2;stroke-miterlimit:10;}
	.st2{fill:#CC9909;stroke:#ACCE05;stroke-width:1.6871;stroke-miterlimit:10;}
	.st3{fill:#E8CDAC;stroke:#9B6626;stroke-width:0.142;stroke-miterlimit:10;}
	.st4{fill:#E8FF3E;stroke:#E8E077;stroke-width:0.4871;stroke-miterlimit:10;}
	.st5{fill:#FFFFFF;stroke:#E8CDAC;stroke-width:0.4871;stroke-miterlimit:10;}
	.st6{fill:none;stroke:#CEB79F;stroke-width:0.9743;stroke-miterlimit:10;}
</style>
<g>
	<polygon class="st2" points="0.8,60.2 0.8,32.9 97,32.9 97,46.9 70.4,46.9 70.4,101.1 83.4,101.1 83.4,88.1 96.4,88.1 96.4,116.1 
		55.4,116.1 55.4,47.2 39.8,47.2 39.8,116.1 0.8,116.1 0.8,101.8 27.5,101.8 27.5,47.2 13.8,47.2 13.8,60.2 	"/>
	<g>
		<g>
			<polygon class="st3" points="49.2,6.6 52.4,18.5 61.1,9.8 			"/>
			<polygon class="st3" points="48.6,6.6 36.7,9.8 45.4,18.5 			"/>
		</g>
		<g>
			<circle class="st4" cx="48.9" cy="11.7" r="11.5"/>
			<path class="st5" d="M58.2,11.3H39.5c-0.2,0-0.4,0.2-0.4,0.4v0c0,0.2,0.2,0.4,0.4,0.4h18.7c0.2,0,0.4-0.2,0.4-0.4v0
				C58.6,11.5,58.4,11.3,58.2,11.3z"/>
			<line class="st6" x1="48.8" y1="21.4" x2="48.8" y2="14.1"/>
		</g>
	</g>
</g>
</svg>
